HIERARCHY
ROOT Hips
{
	OFFSET	0.00	0.00	0.00
	CHANNELS 6 Xposition Yposition Zposition Zrotation Xrotation Yrotation
	JOINT Spine
	{
		OFFSET	 0.00	0.01	 0.00
		CHANNELS 3 Zrotation Xrotation Yrotation
		JOINT Spine1
		{
			OFFSET	 0.00	 2.45913012437421	 0.00
			CHANNELS 3 Zrotation Xrotation Yrotation
            JOINT Neck
            {
                OFFSET	 0.00	 2.48462964506057	 0.00
                CHANNELS 3 Zrotation Xrotation Yrotation
                JOINT Head
                {
                    OFFSET	 0.00	 0.927524780924562	 0.00
                    CHANNELS 3 Zrotation Xrotation Yrotation
                    End Site 
                    {
                        OFFSET	 0.00	 1.14999962169752	 0.00
                    }
                }
            }
			JOINT LeftShoulder
			{
				OFFSET	 0.00	 2.48462964506057	 0.00
				CHANNELS 3 Zrotation Xrotation Yrotation
				JOINT LeftUpArm
				{
					OFFSET	 0.00	 1.24881979654096	 0.00
					CHANNELS 3 Zrotation Xrotation Yrotation
					JOINT LeftForeArm
					{
						OFFSET	 0.00	2.59758046908119	 0.00
						CHANNELS 3 Zrotation Xrotation Yrotation
						JOINT LeftHand
						{
							OFFSET	 0.00	2.45542024364365	 0.00
							CHANNELS 3 Zrotation Xrotation Yrotation
							JOINT LeftHandThumb 
							{
								OFFSET	 0.00	0.00	 0.00
								CHANNELS 3 Zrotation Xrotation Yrotation
								End Site
								{
									OFFSET	 0.00	0.00	1.00000003353624
								}
							}
							JOINT L_Wrist_End 
							{
								OFFSET	 0.00	0.99999967115358	 0.00
								CHANNELS 3 Zrotation Xrotation Yrotation
								End Site 
								{
									OFFSET	 0.00	 0.00	 0.00
								}
							}
						}
					}
				}
			}
			JOINT RightShoulder
			{
				OFFSET	 0.00	 2.48462964506057	 0.00
				CHANNELS 3 Zrotation Xrotation Yrotation
				JOINT RightUpArm
				{
					OFFSET	 0.00	 1.24881979654096	 0.00
					CHANNELS 3 Zrotation Xrotation Yrotation
					JOINT RightForeArm
					{
						OFFSET	 0.00	2.59758046908119	 0.00
						CHANNELS 3 Zrotation Xrotation Yrotation
						JOINT RightHand
						{
							OFFSET	 0.00	2.45542024364365	 0.00
							CHANNELS 3 Zrotation Xrotation Yrotation
							JOINT RightHandThumb 
							{
								OFFSET	 0.00	0.00	 0.00
								CHANNELS 3 Zrotation Xrotation Yrotation
								End Site
								{
									OFFSET	 0.00	0.00	1.00000003353624
								}
							}
							JOINT R_Wrist_End 
							{
								OFFSET	 0.00	0.99999967115358	 0.00
								CHANNELS 3 Zrotation Xrotation Yrotation
								End Site 
								{
									OFFSET	 0.00	 0.00	 0.00
								}
							}
						}
					}
				}
			}
		}
	}
	JOINT LeftUpLeg
	{
		OFFSET	 1.2719394002717	 0.00	 0.00
		CHANNELS 3 Zrotation Xrotation Yrotation
		JOINT LeftLowLeg
		{
			OFFSET	 0.00	-4.3429100912261	 0.00
			CHANNELS 3 Zrotation Xrotation Yrotation
			JOINT LeftFoot
			{
				OFFSET	 0.00	-4.48767017425826	 0.00
				CHANNELS 3 Zrotation Xrotation Yrotation
				JOINT LeftToeBase
                {
                    OFFSET	 0.00	0.00	 1.51507020887566
                    CHANNELS 3 Zrotation Xrotation Yrotation
                    End Site 
                    {
                        OFFSET	 0.00	0.00	 0.75000010571191
                    }
                }
			}
		}
	}
	JOINT RightUpLeg
	{
		OFFSET	 -1.2719393604653	 0.00	 0.00
		CHANNELS 3 Zrotation Xrotation Yrotation
		JOINT RightLowLeg
		{
			OFFSET	 0.00	-4.3429100912261	 0.00
			CHANNELS 3 Zrotation Xrotation Yrotation
			JOINT RightFoot
			{
				OFFSET	 0.00	-4.48767017425826	 0.00
				CHANNELS 3 Zrotation Xrotation Yrotation
				JOINT RightToeBase
                {
                    OFFSET	 0.00	0.00	 1.51507020887566
                    CHANNELS 3 Zrotation Xrotation Yrotation
                    End Site 
                    {
                        OFFSET	 0.00	0.00	 0.749999965609858
                    }
                }   
			}
		}
	}
}
MOTION 
Frames:	18 
Frame Time: 0.02 
 -4.994030151367188 -4.88447998046875 9.24573974609375 92.9015 87.4985 986.202 4.55243 -12.8179 1.43843 -6.86956 14.7188 3.01285 10.5701 42.8153 358.603 -55.019 -85.1915 -407.6 -116.164 -4.02617 364.891 -42.4452 4.50522 14.8419 0.0 17.3952 0.0 21.316 -16.556 -2.68503 0.0 0.0 0.0 0.0 0.0 0.0 120.3705 -4.65823 -361.124 47.3834 1.42252 -10.289 0.0 22.5501 0.0 3.26706 -8.81573 18.9617 0.0 0.0 0.0 0.0 0.0 0.0 -4.63214 -0.811898 -13.6927 0.0 14.0765 0.0 -15.5571 -7.2353 11.5259 0.0 -16.79191 0.0 4.42092 -2.49455 22.7072 0.0 19.8297 0.0 28.3894 -11.486099 -4.42621 0.0 -15.539931 0.0 
  -4.986809997558594 -4.882330017089844 9.246060180664063 90.9314 87.4525 988.804 4.57916 -12.795 1.32987 -6.9337 14.8351 2.87971 11.0913 42.6368 358.128 -54.9208 -85.3191 -407.647 -116.1863 -3.63392 365.17 -43.3151 5.13593 11.1951 0.0 15.4486 0.0 21.1342 -18.0427 -4.49724 0.0 0.0 0.0 0.0 0.0 0.0 120.3184 -4.68719 -360.934 47.3865 1.46393 -10.5256 0.0 22.0724 0.0 3.34377 -8.32405 18.3097 0.0 0.0 0.0 0.0 0.0 0.0 -4.689 -0.805078 -13.8435 0.0 14.0633 0.0 -15.3962 -6.9911003 11.2226 0.0 -16.87652 0.0 4.36485 -2.37897 22.4355 0.0 19.8938 0.0 28.3395 -11.692499 -4.72788 0.0 -15.583002 0.0 
  -4.9785400390625 -4.882449951171875 9.246500244140625 89.6244 87.4014 990.826 4.56976 -12.7694 1.16436 -6.90891 14.8116 2.69861 11.6516 42.6244 357.537 -55.633 -85.3681 -408.574 -116.1631 -3.40949 365.401 -44.2409 5.83663 7.72843 0.0 13.7007 0.0 20.0736 -19.4938 -6.75697 0.0 0.0 0.0 0.0 0.0 0.0 120.191605 -4.76002 -360.897 47.3696 1.53204 -10.7958 0.0 21.666 0.0 3.37421 -8.15197 18.0295 0.0 0.0 0.0 0.0 0.0 0.0 -4.78399 -0.838287 -14.2896 0.0 14.1251 0.0 -15.3963 -6.8414993 11.0196 0.0 -16.87141 0.0 4.24555 -2.24238 21.8012 0.0 19.8671 0.0 28.3897 -11.817499 -4.75998 0.0 -15.57675 0.0 
  -4.970870056152344 -4.883399963378906 9.247969970703124 89.1683 87.3551 991.957 4.53189 -12.7317 1.02648 -6.78105 14.6445 2.56239 12.2994 42.7488 356.727 -57.5425 -85.3178 -410.61 -116.1061 -3.20203 365.531 -45.0468 6.24151 5.63805 0.0 12.5892 0.0 18.2733 -20.9828 -8.54422 0.0 0.0 0.0 0.0 0.0 0.0 120.0117 -4.90086 -360.816 47.3516 1.4678 -11.023 0.0 21.302 0.0 3.44643 -8.30179 17.365 0.0 0.0 0.0 0.0 0.0 0.0 -4.85203 -0.859017 -14.6341 0.0 14.0988 0.0 -15.4054 -6.6492996 10.769 0.0 -16.87719 0.0 4.11832 -2.10493 21.1713 0.0 19.7578 0.0 28.3687 -11.883699 -4.8191 0.0 -15.57822 0.0 
  -4.964469909667969 -4.884859924316406 9.249520263671876 89.4739 87.298 992.378 4.45542 -12.7082 0.842969 -6.61457 14.4355 2.40106 12.7523 42.8803 356.047 -59.84 -85.1932 -412.995 -116.0325 -3.09926 365.398 -45.7882 6.36434 4.45329 0.0 12.0024 0.0 15.9937 -21.9781 -8.71881 0.0 0.0 0.0 0.0 0.0 0.0 119.8704 -4.99266 -360.772 47.2728 1.34269 -11.1057 0.0 21.0336 0.0 3.57461 -8.68705 17.0333 0.0 0.0 0.0 0.0 0.0 0.0 -4.88715 -0.854587 -14.7824 0.0 13.921 0.0 -15.2123 -6.305401 10.4214 0.0 -16.96815 0.0 4.0024 -1.98936 20.5999 0.0 19.662 0.0 28.3655 -11.9974 -4.94031 0.0 -15.593253 0.0 
  -4.957659912109375 -4.886610107421875 9.250889892578124 91.4072 87.2833 991.082 4.36658 -12.7838 0.676946 -6.29558 14.2628 2.32107 13.0638 42.9836 355.401 -62.9232 -84.986 -416.089 -116.0852 -3.00993 365.369 -46.3665 6.38063 3.98483 0.0 11.9426 0.0 13.1716 -22.1538 -8.81291 0.0 0.0 0.0 0.0 0.0 0.0 119.719604 -5.12123 -360.695 47.0954 1.26689 -11.2198 0.0 20.6271 0.0 3.53211 -8.99626 16.3061 0.0 0.0 0.0 0.0 0.0 0.0 -4.94596 -1.0001 -15.2408 0.0 13.956 0.0 -15.2418 -6.191799 10.2892 0.0 -16.98921 0.0 3.88447 -1.93068 19.9398 0.0 19.4833 0.0 28.3647 -12.004499 -4.91228 0.0 -15.562826 0.0 
  -4.952550048828125 -4.888940124511719 9.25176025390625 94.9845 87.2611 988.042 4.26964 -12.9135 0.535053 -5.99455 14.0691 2.27015 13.2817 43.0241 354.857 -65.5576 -84.7709 -418.735 -116.2139 -3.02658 365.39 -46.7255 6.27736 4.25809 0.0 12.4107 0.0 10.0401 -21.6641 -8.65138 0.0 0.0 0.0 0.0 0.0 0.0 119.599 -5.18188 -360.648 46.8988 1.05268 -11.1949 0.0 20.3177 0.0 3.30472 -8.62756 15.7116 0.0 0.0 0.0 0.0 0.0 0.0 -4.96817 -1.18923 -15.439 0.0 13.9211 0.0 -15.0946 -5.9976006 10.0636 0.0 -17.04452 0.0 3.78244 -1.98255 19.3578 0.0 19.365 0.0 28.4038 -12.0149 -4.8266 0.0 -15.569934 0.0 
  -4.947799987792969 -4.890499877929687 9.251890258789063 95.8934 87.2548 987.54 4.28256 -12.8814 0.534858 -5.85034 13.8514 2.25723 13.6273 43.0084 354.223 -67.6822 -84.6011 -420.816 -116.3085 -3.07177 365.462 -46.9066 6.05111 5.40661 0.0 13.3402 0.0 7.07671 -20.354 -7.73113 0.0 0.0 0.0 0.0 0.0 0.0 119.6473 -5.25212 -360.651 46.5877 0.917934 -11.1244 0.0 20.0379 0.0 3.40126 -8.91606 14.3643 0.0 0.0 0.0 0.0 0.0 0.0 -5.0138 -1.29061 -15.8021 0.0 14.0091 0.0 -15.066 -5.9675007 10.0236 0.0 -17.02663 0.0 3.71043 -1.95578 18.8937 0.0 19.3191 0.0 28.4639 -12.0215 -4.70748 0.0 -15.561386 0.0 
  -4.945180053710938 -4.892959899902344 9.2518701171875 98.0217 87.2421 985.743 4.24653 -12.934 0.521713 -5.68096 13.6796 2.27989 13.9013 42.9913 353.721 -69.7644 -84.4763 -422.886 -116.463 -3.17048 365.49 -46.9246 5.77388 6.75856 0.0 14.4724 0.0 4.17097 -18.3239 -6.54609 0.0 0.0 0.0 0.0 0.0 0.0 119.7151 -5.27833 -360.696 46.254 0.754516 -11.0318 0.0 19.8382 0.0 3.24751 -8.79112 15.635 0.0 0.0 0.0 0.0 0.0 0.0 -5.02057 -1.40699 -15.9206 0.0 14.0124 0.0 -15.1378 -5.9139004 9.79955 0.0 -17.00925 0.0 3.65244 -1.97919 18.5288 0.0 19.2474 0.0 28.5688 -12.042101 -4.57977 0.0 -15.503449 0.0 
  -4.944140014648437 -4.896319885253906 9.251799926757812 99.3043 87.2243 984.699 4.17346 -13.0046 0.52075 -5.47149 13.6152 2.36686 13.9821 42.9564 353.453 -71.4242 -84.352 -424.637 -116.6325 -3.26577 365.553 -46.8719 5.51325 8.14611 0.0 15.7786 0.0 2.03351 -16.0655 -3.99168 0.0 0.0 0.0 0.0 0.0 0.0 119.7423 -5.12207 -360.614 45.957 0.372467 -10.954 0.0 19.7111 0.0 3.03675 -8.79184 13.9891 0.0 0.0 0.0 0.0 0.0 0.0 -5.00677 -1.44542 -15.8992 0.0 13.9519 0.0 -15.0251 -5.7999 9.60926 0.0 -17.09422 0.0 3.60668 -1.97117 18.2655 0.0 19.1916 0.0 28.6028 -12.054701 -4.5005 0.0 -15.513862 0.0 
  -4.944049987792969 -4.9 9.251840209960937 99.3923 87.2158 984.759 4.10311 -13.0243 0.554385 -5.30564 13.5968 2.48312 14.0732 42.9265 353.277 -72.9482 -84.3112 -426.32 -116.7437 -3.39124 365.578 -46.8429 5.33007 9.22709 0.0 16.9952 0.0 0.497064 -14.0885 -1.42779 0.0 0.0 0.0 0.0 0.0 0.0 119.7383 -5.41142 -361.04 45.7288 0.885325 -10.9342 0.0 19.4441 0.0 3.00555 -8.90535 13.8174 0.0 0.0 0.0 0.0 0.0 0.0 -5.01275 -1.45858 -16.0058 0.0 14.0021 0.0 -15.0692 -5.809799 9.52937 0.0 -17.0901 0.0 3.57208 -1.91929 18.0616 0.0 19.1467 0.0 28.5727 -12.0364 -4.43161 0.0 -15.518387 0.0 
  -4.945830078125 -4.904639892578125 9.25198974609375 98.5948 87.1998 985.677 4.0068 -13.0292 0.571897 -5.18152 13.5893 2.58737 14.2419 42.9433 353.072 -73.4786 -84.2914 -426.962 -116.819 -3.52417 365.639 -46.7812 5.14804 10.2563 0.0 18.2435 0.0 -0.244609 -12.8864 0.497416 0.0 0.0 0.0 0.0 0.0 0.0 119.6586 -5.3333 -360.999 45.6631 0.759675 -11.086 0.0 19.1233 0.0 2.89356 -8.87923 13.8312 0.0 0.0 0.0 0.0 0.0 0.0 -5.00613 -1.41104 -16.0051 0.0 14.0222 0.0 -15.3177 -5.8348007 9.30801 0.0 -17.11465 0.0 3.54529 -1.82456 17.8824 0.0 19.108 0.0 28.6318 -12.046801 -4.33527 0.0 -15.50139 0.0 
  -4.949299926757813 -4.907860107421875 9.2522900390625 97.7451 87.1915 986.626 3.93302 -13.0067 0.609775 -5.15184 13.5475 2.67198 14.5258 43.0577 352.828 -73.4286 -84.3193 -426.987 -116.8421 -3.59431 365.685 -46.7186 4.98675 11.0179 0.0 19.2063 0.0 -0.379894 -12.4824 0.843674 0.0 0.0 0.0 0.0 0.0 0.0 119.5683 -5.1898 -360.925 45.7001 0.478655 -11.1626 0.0 18.9936 0.0 2.79665 -8.95749 13.5835 0.0 0.0 0.0 0.0 0.0 0.0 -4.97557 -1.39885 -16.0164 0.0 14.1116 0.0 -15.4301 -5.8671 9.09143 0.0 -17.159729 0.0 3.54818 -1.76191 17.7488 0.0 19.1127 0.0 28.5786 -12.0399 -4.32427 0.0 -15.57367 0.0 
  -4.95468994140625 -4.911480102539063 9.252579956054687 97.9106 87.1826 986.52 3.849 -13.0083 0.64909 -5.15891 13.4295 2.74632 14.8693 43.3099 352.584 -72.7875 -84.3618 -426.407 -116.8239 -3.70074 365.742 -46.7063 4.92171 11.4411 0.0 19.8283 0.0 -0.0369942 -12.4356 0.945238 0.0 0.0 0.0 0.0 0.0 0.0 119.5019 -5.11654 -360.978 45.7352 0.356199 -11.3521 0.0 18.9215 0.0 2.87525 -9.2018 14.5625 0.0 0.0 0.0 0.0 0.0 0.0 -4.92602 -1.42722 -15.9333 0.0 14.1822 0.0 -15.7597 -5.9335003 8.76111 0.0 -17.1467 0.0 3.57289 -1.77637 17.6236 0.0 19.1698 0.0 28.5207 -12.0256 -4.29057 0.0 -15.5791855 0.0 
  -4.961530151367188 -4.915280151367187 9.252540283203125 99.8539 87.1384 984.552 3.73033 -13.0839 0.714392 -5.1811 13.26 2.86432 15.3428 43.6289 352.187 -71.3712 -84.3652 -424.957 -116.809204 -3.77939 365.924 -46.6599 5.01018 11.8585 0.0 20.0918 0.0 0.855732 -12.8052 -0.290932 0.0 0.0 0.0 0.0 0.0 0.0 119.3197 -5.05602 -361.047 45.9704 0.211126 -11.5125 0.0 18.9004 0.0 2.83626 -9.35709 14.4808 0.0 0.0 0.0 0.0 0.0 0.0 -4.90174 -1.54738 -15.83 0.0 14.2825 0.0 -16.0626 -6.0426006 8.46251 0.0 -17.26574 0.0 3.59557 -1.90199 17.6717 0.0 19.2634 0.0 28.437 -12.0665 -4.32126 0.0 -15.659019 0.0 
  -4.969119873046875 -4.91864990234375 9.25218017578125 100.606 87.1126 983.763 3.63727 -13.0883 0.795575 -5.26063 13.0861 2.96569 15.8827 44.0582 351.788 -69.8811 -84.4056 -423.389 -116.7881 -3.8254 365.955 -46.5886 5.1023 12.2805 0.0 19.9505 0.0 1.79595 -13.0065 -0.897903 0.0 0.0 0.0 0.0 0.0 0.0 119.270905 -5.08651 -360.844 46.0558 -0.0858995 -12.0045 0.0 19.0983 0.0 2.8085 -9.34031 13.4422 0.0 0.0 0.0 0.0 0.0 0.0 -4.87445 -1.6273 -15.8028 0.0 14.4503 0.0 -16.5953 -6.33 8.16745 0.0 -17.40208 0.0 3.6496 -1.98635 17.7817 0.0 19.3997 0.0 28.422 -12.1665 -4.32584 0.0 -15.73278 0.0 
  -4.979150085449219 -4.923510131835937 9.250789794921875 102.81 87.077 981.531 3.53163 -13.1907 0.871044 -5.3796 12.8896 3.06341 16.4624 44.6259 351.37 -67.198 -84.3953 -420.556 -116.7414 -3.80602 365.952 -46.4762 5.22396 12.8529 0.0 19.4393 0.0 2.84534 -13.107 -1.94367 0.0 0.0 0.0 0.0 0.0 0.0 119.1859 -5.1513 -360.649 46.2117 -0.373868 -12.6417 0.0 19.3481 0.0 2.91515 -9.35981 13.5269 0.0 0.0 0.0 0.0 0.0 0.0 -4.82714 -1.80583 -15.7819 0.0 14.6941 0.0 -17.6159 -6.8157997 7.60427 0.0 -17.22704 0.0 3.74742 -2.18573 17.9621 0.0 19.6729 0.0 28.3783 -12.3866005 -4.33592 0.0 -15.757328 0.0 
  -4.989429931640625 -4.928489990234375 9.248480224609375 105.573 87.0033 978.628 3.52024 -13.2381 1.0919 -5.65962 12.4886 3.19351 17.1855 45.3938 350.853 -63.6856 -84.3319 -416.946 -116.6546 -3.72177 366.016 -46.2896 5.39264 13.4364 0.0 18.6381 0.0 3.77168 -13.2917 -2.51416 0.0 0.0 0.0 0.0 0.0 0.0 119.1514 -5.28573 -360.502 46.3884 -0.878588 -13.0234 0.0 19.9952 0.0 2.86777 -9.37271 13.1359 0.0 0.0 0.0 0.0 0.0 0.0 -4.79109 -2.01538 -15.555 0.0 14.9319 0.0 -18.5523 -7.2379 7.02001 0.0 -17.21364 0.0 3.84347 -2.52031 18.2078 0.0 20.1417 0.0 28.5214 -12.6264 -4.15824 0.0 -16.207531 0.0 
